<?xml version="1.0" standalone="no"?>
<!DOCTYPE svg PUBLIC "-//W3C//DTD SVG 20010904//EN"
 "http://www.w3.org/TR/2001/REC-SVG-20010904/DTD/svg10.dtd">
<svg version="1.0" xmlns="http://www.w3.org/2000/svg"
 width="216.000000pt" height="216.000000pt" viewBox="0 0 216.000000 216.000000"
 preserveAspectRatio="xMidYMid meet">
<metadata>
Created by potrace 1.11, written by Peter Selinger 2001-2013
</metadata>
<g transform="translate(0.000000,216.000000) scale(0.100000,-0.100000)"
fill="#000000" stroke="none">
<path d="M0 1637 c0 -3 97 -245 217 -538 119 -294 216 -542 217 -551 0 -17 38
-18 642 -18 l642 0 5 22 c4 13 103 261 221 553 118 291 213 531 211 533 -2 2
-180 -110 -396 -248 -339 -218 -394 -250 -404 -237 -6 9 -70 118 -141 242 -71
123 -132 225 -136 225 -3 0 -68 -108 -144 -240 -80 -139 -143 -239 -150 -236
-6 2 -168 105 -360 228 -402 257 -424 271 -424 265z m1190 -333 c58 -102 106
-191 108 -197 1 -7 -48 -44 -109 -83 l-111 -72 -111 72 c-60 39 -110 74 -111
78 -1 10 217 388 224 388 3 0 52 -84 110 -186z m-732 -33 c166 -106 300 -196
298 -200 -53 -97 -252 -439 -260 -448 -9 -10 -53 90 -180 405 -93 229 -171
423 -174 431 -3 7 -1 12 5 10 6 -2 146 -91 311 -198z m1396 -208 c-91 -225
-170 -419 -175 -432 -5 -13 -11 -22 -13 -20 -24 27 -265 464 -259 470 13 13
597 388 605 388 4 1 -68 -182 -158 -406z m-939 -84 c67 -44 93 -65 85 -73 -14
-14 -404 -264 -408 -261 -2 2 221 395 225 395 1 0 45 -28 98 -61z m530 -121
c54 -95 105 -184 114 -197 19 -30 41 -42 -218 123 l-201 129 97 63 c54 34 100
61 104 58 3 -2 50 -81 104 -176z m-150 -123 l203 -130 -209 -3 c-115 -1 -304
-1 -419 0 l-211 3 203 132 c112 72 209 131 216 130 8 -1 105 -60 217 -132z"/>
</g>
</svg>
